<?xml version="1.0" standalone="no"?><svg xmlns="http://www.w3.org/2000/svg" viewBox="0 0 1440 320"><path fill="#4bb1dc" fill-opacity="1" d="M0,288L26.7,277.3C53.3,267,107,245,160,229.3C213.3,213,267,203,320,208C373.3,213,427,235,480,218.7C533.3,203,587,149,640,138.7C693.3,128,747,160,800,186.7C853.3,213,907,235,960,218.7C1013.3,203,1067,149,1120,149.3C1173.3,149,1227,203,1280,218.7C1333.3,235,1387,213,1413,202.7L1440,192L1440,320L1413.3,320C1386.7,320,1333,320,1280,320C1226.7,320,1173,320,1120,320C1066.7,320,1013,320,960,320C906.7,320,853,320,800,320C746.7,320,693,320,640,320C586.7,320,533,320,480,320C426.7,320,373,320,320,320C266.7,320,213,320,160,320C106.7,320,53,320,27,320L0,320Z"></path></svg>