<?xml version="1.0" standalone="no"?><svg xmlns="http://www.w3.org/2000/svg" viewBox="0 0 1440 320"><path fill="#4bb1dc" fill-opacity="1" d="M0,160L24,149.3C48,139,96,117,144,112C192,107,240,117,288,144C336,171,384,213,432,234.7C480,256,528,256,576,250.7C624,245,672,235,720,208C768,181,816,139,864,106.7C912,75,960,53,1008,53.3C1056,53,1104,75,1152,90.7C1200,107,1248,117,1296,106.7C1344,96,1392,64,1416,48L1440,32L1440,320L1416,320C1392,320,1344,320,1296,320C1248,320,1200,320,1152,320C1104,320,1056,320,1008,320C960,320,912,320,864,320C816,320,768,320,720,320C672,320,624,320,576,320C528,320,480,320,432,320C384,320,336,320,288,320C240,320,192,320,144,320C96,320,48,320,24,320L0,320Z"></path></svg>